<?xml version="1.0" encoding="utf-8"?>
<!-- Generator: Adobe Illustrator 23.0.1, SVG Export Plug-In . SVG Version: 6.00 Build 0)  -->
<svg version="1.1" id="Layer_1" xmlns="http://www.w3.org/2000/svg" xmlns:xlink="http://www.w3.org/1999/xlink" x="0px" y="0px"
	 viewBox="0 0 150 150" style="enable-background:new 0 0 150 150;" xml:space="preserve">
<style type="text/css">
	.st0{fill:#414141;}
</style>
<path class="st0" d="M142.5,121h-0.7c-6.2-0.4-7.8-5.3-11.9-11.5L104.7,72l17.7-19.2c5.9-6.4,8.6-8,13.4-8h1.4
	c0.8,0,1.6-0.6,1.6-1.8v-3.6c-0.1-1.1-0.7-1.8-1.8-1.8h-30.5c-1.1,0-1.8,0.7-1.8,1.8V43c0,1.2,0.7,1.8,1.6,1.8h2.5
	c1.7,0,2.4,1,2.4,2.2c0,0.8-0.5,1.9-1.2,2.9l-3.7,4.1l-10,11.1c-0.2-1.4-0.4-2.8-0.7-4.3c-4.7-22.1-23.9-37.4-45-37.4
	c-3,0-6,0.2-9.2,1C20.3,28.9,5.9,48.2,5.9,69.7c0,3.3,0.4,6.6,1.1,10c4.7,22.1,23.8,37.3,44.9,37.3c3,0,6-0.4,9.1-1
	c15.9-3.4,28.1-15,33.1-29.7l16.4,23.2c1.4,2.1,2.2,4,2.2,5.8c0,3.1-2.4,5.4-6.5,5.7h-0.7c-1.2,0-1.8,0.6-1.8,1.8v3.6
	c0,1.2,0.6,1.8,1.8,1.8h37.1c1.2,0,1.8-0.6,1.8-1.8v-3.6C144.3,121.6,143.7,121,142.5,121z M58.8,105.7c-2.1,0.4-3.9,0.6-5.7,0.6
	c-15.9,0-24.6-15.6-27.9-30.4c-0.8-4.1-1.3-8.3-1.3-12.6c0-13,4.9-25.5,19.8-28.6c1.9-0.4,3.9-0.6,5.6-0.6c16.1,0,24.9,15.7,28,30.7
	c0.8,4,1.4,8.2,1.4,12.4C78.7,90.2,73.6,102.5,58.8,105.7z"/>
</svg>
