<?xml version="1.0" encoding="utf-8"?>
<!-- Generator: Adobe Illustrator 23.0.1, SVG Export Plug-In . SVG Version: 6.00 Build 0)  -->
<svg version="1.1" id="Layer_1" xmlns="http://www.w3.org/2000/svg" xmlns:xlink="http://www.w3.org/1999/xlink" x="0px" y="0px"
	 viewBox="0 0 127.9 74.9" style="enable-background:new 0 0 127.9 74.9;" xml:space="preserve">
<style type="text/css">
	.st0{fill:#383838;}
</style>
<g>
	<path class="st0" d="M5,37.1c0-9.6,3.5-17.9,10.6-24.8C22.6,5.4,31.1,2,41,2c9.7,0,18.1,3.5,25.1,10.5s10.5,15.4,10.5,25.1
		c0,9.8-3.5,18.2-10.5,25C59,69.4,50.5,72.9,40.5,72.9c-8.8,0-16.8-3.1-23.8-9.2C8.9,57,5,48.1,5,37.1z M15.4,37.3
		c0,7.6,2.5,13.8,7.6,18.7c5,4.9,10.9,7.3,17.5,7.3c7.2,0,13.2-2.5,18.2-7.4c4.9-5,7.4-11.1,7.4-18.3c0-7.3-2.5-13.4-7.3-18.3
		c-4.8-5-10.8-7.5-18-7.5c-7.1,0-13.1,2.5-18,7.4C17.9,24,15.4,30.1,15.4,37.3z"/>
	<polygon class="st0" points="93.3,34.3 122.7,4.9 109.6,4.9 80.9,34.4 109.8,69.9 122.9,69.9 	"/>
</g>
</svg>
